<mxfile host="app.diagrams.net" modified="2024-05-29T11:08:42.279Z" agent="Mozilla/5.0 (Windows NT 10.0; Win64; x64) AppleWebKit/537.36 (KHTML, like Gecko) Chrome/125.0.0.0 Safari/537.36" etag="OMJt_1OLWx3SP_gfjNH1" version="24.4.9" type="github">
  <diagram name="Page-1" id="2YBvvXClWsGukQMizWep">
    <mxGraphModel dx="835" dy="484" grid="1" gridSize="10" guides="1" tooltips="1" connect="1" arrows="1" fold="1" page="1" pageScale="1" pageWidth="850" pageHeight="1100" math="0" shadow="0">
      <root>
        <mxCell id="0" />
        <mxCell id="1" parent="0" />
        <object label=":Object" id="aM9ryv3xv72pqoxQDRHE-1">
          <mxCell style="shape=umlLifeline;perimeter=lifelinePerimeter;whiteSpace=wrap;html=1;container=0;dropTarget=0;collapsible=0;recursiveResize=0;outlineConnect=0;portConstraint=eastwest;newEdgeStyle={&quot;edgeStyle&quot;:&quot;elbowEdgeStyle&quot;,&quot;elbow&quot;:&quot;vertical&quot;,&quot;curved&quot;:0,&quot;rounded&quot;:0};" parent="1" vertex="1">
            <mxGeometry x="521" y="740" width="100" height="300" as="geometry" />
          </mxCell>
        </object>
        <mxCell id="aM9ryv3xv72pqoxQDRHE-2" value="" style="html=1;points=[];perimeter=orthogonalPerimeter;outlineConnect=0;targetShapes=umlLifeline;portConstraint=eastwest;newEdgeStyle={&quot;edgeStyle&quot;:&quot;elbowEdgeStyle&quot;,&quot;elbow&quot;:&quot;vertical&quot;,&quot;curved&quot;:0,&quot;rounded&quot;:0};" parent="aM9ryv3xv72pqoxQDRHE-1" vertex="1">
          <mxGeometry x="45" y="70" width="10" height="190" as="geometry" />
        </mxCell>
        <mxCell id="aM9ryv3xv72pqoxQDRHE-3" value="dispatch" style="html=1;verticalAlign=bottom;startArrow=oval;endArrow=block;startSize=8;edgeStyle=elbowEdgeStyle;elbow=vertical;curved=0;rounded=0;" parent="aM9ryv3xv72pqoxQDRHE-1" target="aM9ryv3xv72pqoxQDRHE-2" edge="1">
          <mxGeometry relative="1" as="geometry">
            <mxPoint x="-15" y="70" as="sourcePoint" />
          </mxGeometry>
        </mxCell>
        <mxCell id="aM9ryv3xv72pqoxQDRHE-4" value="" style="html=1;points=[];perimeter=orthogonalPerimeter;outlineConnect=0;targetShapes=umlLifeline;portConstraint=eastwest;newEdgeStyle={&quot;edgeStyle&quot;:&quot;elbowEdgeStyle&quot;,&quot;elbow&quot;:&quot;vertical&quot;,&quot;curved&quot;:0,&quot;rounded&quot;:0};" parent="aM9ryv3xv72pqoxQDRHE-1" vertex="1">
          <mxGeometry x="50" y="120" width="10" height="80" as="geometry" />
        </mxCell>
        <mxCell id="aM9ryv3xv72pqoxQDRHE-5" value=":Object" style="shape=umlLifeline;perimeter=lifelinePerimeter;whiteSpace=wrap;html=1;container=0;dropTarget=0;collapsible=0;recursiveResize=0;outlineConnect=0;portConstraint=eastwest;newEdgeStyle={&quot;edgeStyle&quot;:&quot;elbowEdgeStyle&quot;,&quot;elbow&quot;:&quot;vertical&quot;,&quot;curved&quot;:0,&quot;rounded&quot;:0};" parent="1" vertex="1">
          <mxGeometry x="711" y="740" width="100" height="300" as="geometry" />
        </mxCell>
        <mxCell id="aM9ryv3xv72pqoxQDRHE-6" value="" style="html=1;points=[];perimeter=orthogonalPerimeter;outlineConnect=0;targetShapes=umlLifeline;portConstraint=eastwest;newEdgeStyle={&quot;edgeStyle&quot;:&quot;elbowEdgeStyle&quot;,&quot;elbow&quot;:&quot;vertical&quot;,&quot;curved&quot;:0,&quot;rounded&quot;:0};" parent="aM9ryv3xv72pqoxQDRHE-5" vertex="1">
          <mxGeometry x="45" y="80" width="10" height="170" as="geometry" />
        </mxCell>
        <mxCell id="aM9ryv3xv72pqoxQDRHE-7" value="dispatch" style="html=1;verticalAlign=bottom;endArrow=block;edgeStyle=elbowEdgeStyle;elbow=vertical;curved=0;rounded=0;" parent="1" source="aM9ryv3xv72pqoxQDRHE-2" target="aM9ryv3xv72pqoxQDRHE-6" edge="1">
          <mxGeometry relative="1" as="geometry">
            <mxPoint x="456" y="830" as="sourcePoint" />
            <Array as="points">
              <mxPoint x="441" y="820" />
            </Array>
          </mxGeometry>
        </mxCell>
        <mxCell id="aM9ryv3xv72pqoxQDRHE-8" value="return" style="html=1;verticalAlign=bottom;endArrow=open;dashed=1;endSize=8;edgeStyle=elbowEdgeStyle;elbow=vertical;curved=0;rounded=0;" parent="1" source="aM9ryv3xv72pqoxQDRHE-6" target="aM9ryv3xv72pqoxQDRHE-2" edge="1">
          <mxGeometry relative="1" as="geometry">
            <mxPoint x="456" y="905" as="targetPoint" />
            <Array as="points">
              <mxPoint x="451" y="980" />
            </Array>
          </mxGeometry>
        </mxCell>
        <mxCell id="aM9ryv3xv72pqoxQDRHE-9" value="callback" style="html=1;verticalAlign=bottom;endArrow=block;edgeStyle=elbowEdgeStyle;elbow=vertical;curved=0;rounded=0;" parent="1" source="aM9ryv3xv72pqoxQDRHE-6" target="aM9ryv3xv72pqoxQDRHE-4" edge="1">
          <mxGeometry relative="1" as="geometry">
            <mxPoint x="436" y="860" as="sourcePoint" />
            <Array as="points">
              <mxPoint x="451" y="860" />
            </Array>
          </mxGeometry>
        </mxCell>
        <mxCell id="aM9ryv3xv72pqoxQDRHE-10" value="return" style="html=1;verticalAlign=bottom;endArrow=open;dashed=1;endSize=8;edgeStyle=elbowEdgeStyle;elbow=vertical;curved=0;rounded=0;" parent="1" source="aM9ryv3xv72pqoxQDRHE-4" target="aM9ryv3xv72pqoxQDRHE-6" edge="1">
          <mxGeometry relative="1" as="geometry">
            <mxPoint x="436" y="935" as="targetPoint" />
            <Array as="points">
              <mxPoint x="441" y="930" />
            </Array>
          </mxGeometry>
        </mxCell>
        <mxCell id="TFJXQhnBh7qjKHU6Yoi9-2" value="" style="endArrow=none;dashed=1;html=1;dashPattern=1 3;strokeWidth=2;rounded=0;" edge="1" parent="1">
          <mxGeometry width="50" height="50" relative="1" as="geometry">
            <mxPoint x="641" y="970" as="sourcePoint" />
            <mxPoint x="691" y="920" as="targetPoint" />
          </mxGeometry>
        </mxCell>
        <mxCell id="TFJXQhnBh7qjKHU6Yoi9-7" style="edgeStyle=orthogonalEdgeStyle;rounded=0;orthogonalLoop=1;jettySize=auto;html=1;exitX=0.25;exitY=0.1;exitDx=0;exitDy=0;exitPerimeter=0;" edge="1" parent="1" source="TFJXQhnBh7qjKHU6Yoi9-1">
          <mxGeometry relative="1" as="geometry">
            <mxPoint x="14" y="40" as="targetPoint" />
          </mxGeometry>
        </mxCell>
        <mxCell id="TFJXQhnBh7qjKHU6Yoi9-3" value="" style="endArrow=none;dashed=1;html=1;dashPattern=1 3;strokeWidth=2;rounded=0;" edge="1" parent="1">
          <mxGeometry width="50" height="50" relative="1" as="geometry">
            <mxPoint x="641" y="970" as="sourcePoint" />
            <mxPoint x="691" y="920" as="targetPoint" />
          </mxGeometry>
        </mxCell>
        <mxCell id="TFJXQhnBh7qjKHU6Yoi9-1" value="Actor" style="shape=umlActor;verticalLabelPosition=bottom;verticalAlign=top;html=1;outlineConnect=0;" vertex="1" parent="1">
          <mxGeometry x="4" y="20" width="40" height="50" as="geometry" />
        </mxCell>
        <mxCell id="TFJXQhnBh7qjKHU6Yoi9-4" value="" style="endArrow=none;dashed=1;html=1;rounded=0;" edge="1" parent="1">
          <mxGeometry width="50" height="50" relative="1" as="geometry">
            <mxPoint x="641" y="970" as="sourcePoint" />
            <mxPoint x="691" y="920" as="targetPoint" />
          </mxGeometry>
        </mxCell>
        <mxCell id="TFJXQhnBh7qjKHU6Yoi9-5" value="" style="endArrow=none;dashed=1;html=1;rounded=0;" edge="1" parent="1" source="TFJXQhnBh7qjKHU6Yoi9-27">
          <mxGeometry width="50" height="50" relative="1" as="geometry">
            <mxPoint x="24" y="720" as="sourcePoint" />
            <mxPoint x="23.629629629629676" y="75" as="targetPoint" />
          </mxGeometry>
        </mxCell>
        <mxCell id="TFJXQhnBh7qjKHU6Yoi9-8" value="" style="rounded=0;whiteSpace=wrap;html=1;" vertex="1" parent="1">
          <mxGeometry x="611" y="910" width="120" height="60" as="geometry" />
        </mxCell>
        <mxCell id="TFJXQhnBh7qjKHU6Yoi9-10" value="" style="rounded=0;whiteSpace=wrap;html=1;" vertex="1" parent="1">
          <mxGeometry x="350" y="910" width="120" height="60" as="geometry" />
        </mxCell>
        <object label="" id="TFJXQhnBh7qjKHU6Yoi9-11">
          <mxCell style="rounded=0;whiteSpace=wrap;html=1;fontFamily=Times New Roman;" vertex="1" parent="1">
            <mxGeometry x="120" y="40" width="90" height="40" as="geometry" />
          </mxCell>
        </object>
        <mxCell id="TFJXQhnBh7qjKHU6Yoi9-12" value="" style="rounded=0;whiteSpace=wrap;html=1;" vertex="1" parent="1">
          <mxGeometry x="250" y="40" width="90" height="40" as="geometry" />
        </mxCell>
        <mxCell id="TFJXQhnBh7qjKHU6Yoi9-13" value="" style="endArrow=none;dashed=1;html=1;rounded=0;entryX=0.5;entryY=1;entryDx=0;entryDy=0;" edge="1" parent="1" source="TFJXQhnBh7qjKHU6Yoi9-36" target="TFJXQhnBh7qjKHU6Yoi9-11">
          <mxGeometry width="50" height="50" relative="1" as="geometry">
            <mxPoint x="170" y="720" as="sourcePoint" />
            <mxPoint x="190" y="170" as="targetPoint" />
          </mxGeometry>
        </mxCell>
        <mxCell id="TFJXQhnBh7qjKHU6Yoi9-14" value="" style="endArrow=none;dashed=1;html=1;rounded=0;entryX=0.5;entryY=1;entryDx=0;entryDy=0;" edge="1" parent="1">
          <mxGeometry width="50" height="50" relative="1" as="geometry">
            <mxPoint x="287" y="720" as="sourcePoint" />
            <mxPoint x="287" y="80" as="targetPoint" />
          </mxGeometry>
        </mxCell>
        <mxCell id="TFJXQhnBh7qjKHU6Yoi9-15" value="Home" style="text;html=1;align=center;verticalAlign=middle;whiteSpace=wrap;rounded=0;" vertex="1" parent="1">
          <mxGeometry x="135" y="45" width="60" height="30" as="geometry" />
        </mxCell>
        <mxCell id="TFJXQhnBh7qjKHU6Yoi9-16" value="Mpesa gateway" style="text;html=1;align=center;verticalAlign=middle;whiteSpace=wrap;rounded=0;" vertex="1" parent="1">
          <mxGeometry x="250" y="40" width="90" height="40" as="geometry" />
        </mxCell>
        <mxCell id="TFJXQhnBh7qjKHU6Yoi9-17" value="" style="rounded=0;whiteSpace=wrap;html=1;" vertex="1" parent="1">
          <mxGeometry x="380" y="40" width="90" height="40" as="geometry" />
        </mxCell>
        <mxCell id="TFJXQhnBh7qjKHU6Yoi9-18" value="" style="endArrow=none;dashed=1;html=1;rounded=0;entryX=0.433;entryY=1.183;entryDx=0;entryDy=0;entryPerimeter=0;" edge="1" parent="1">
          <mxGeometry width="50" height="50" relative="1" as="geometry">
            <mxPoint x="417" y="702" as="sourcePoint" />
            <mxPoint x="418.97" y="79.32000000000005" as="targetPoint" />
          </mxGeometry>
        </mxCell>
        <mxCell id="TFJXQhnBh7qjKHU6Yoi9-19" value="Notification&amp;nbsp;" style="text;html=1;align=center;verticalAlign=middle;whiteSpace=wrap;rounded=0;" vertex="1" parent="1">
          <mxGeometry x="380" y="40" width="90" height="40" as="geometry" />
        </mxCell>
        <mxCell id="TFJXQhnBh7qjKHU6Yoi9-20" value="" style="rounded=0;whiteSpace=wrap;html=1;" vertex="1" parent="1">
          <mxGeometry x="520" y="40" width="90" height="40" as="geometry" />
        </mxCell>
        <mxCell id="TFJXQhnBh7qjKHU6Yoi9-21" value="" style="endArrow=none;dashed=1;html=1;rounded=0;entryX=0.5;entryY=1;entryDx=0;entryDy=0;" edge="1" parent="1" source="TFJXQhnBh7qjKHU6Yoi9-47">
          <mxGeometry width="50" height="50" relative="1" as="geometry">
            <mxPoint x="565" y="724" as="sourcePoint" />
            <mxPoint x="564.5" y="80" as="targetPoint" />
          </mxGeometry>
        </mxCell>
        <mxCell id="TFJXQhnBh7qjKHU6Yoi9-22" value="BackEnd" style="text;html=1;align=center;verticalAlign=middle;whiteSpace=wrap;rounded=0;" vertex="1" parent="1">
          <mxGeometry x="520" y="40" width="90" height="40" as="geometry" />
        </mxCell>
        <mxCell id="TFJXQhnBh7qjKHU6Yoi9-23" value="" style="rounded=0;whiteSpace=wrap;html=1;" vertex="1" parent="1">
          <mxGeometry x="650" y="40" width="90" height="40" as="geometry" />
        </mxCell>
        <mxCell id="TFJXQhnBh7qjKHU6Yoi9-24" value="" style="endArrow=none;dashed=1;html=1;rounded=0;entryX=0.5;entryY=1;entryDx=0;entryDy=0;" edge="1" parent="1" target="TFJXQhnBh7qjKHU6Yoi9-25">
          <mxGeometry width="50" height="50" relative="1" as="geometry">
            <mxPoint x="700" y="720" as="sourcePoint" />
            <mxPoint x="687" y="360" as="targetPoint" />
          </mxGeometry>
        </mxCell>
        <mxCell id="TFJXQhnBh7qjKHU6Yoi9-25" value="Database" style="text;html=1;align=center;verticalAlign=middle;whiteSpace=wrap;rounded=0;" vertex="1" parent="1">
          <mxGeometry x="650" y="40" width="90" height="40" as="geometry" />
        </mxCell>
        <mxCell id="TFJXQhnBh7qjKHU6Yoi9-28" value="" style="endArrow=none;dashed=1;html=1;rounded=0;" edge="1" parent="1" target="TFJXQhnBh7qjKHU6Yoi9-27">
          <mxGeometry width="50" height="50" relative="1" as="geometry">
            <mxPoint x="24" y="720" as="sourcePoint" />
            <mxPoint x="23.629629629629676" y="75" as="targetPoint" />
          </mxGeometry>
        </mxCell>
        <mxCell id="TFJXQhnBh7qjKHU6Yoi9-27" value="" style="rounded=0;whiteSpace=wrap;html=1;fillColor=#ffe6cc;strokeColor=#d79b00;" vertex="1" parent="1">
          <mxGeometry x="16" y="100" width="16" height="390" as="geometry" />
        </mxCell>
        <mxCell id="TFJXQhnBh7qjKHU6Yoi9-37" value="" style="endArrow=none;dashed=1;html=1;rounded=0;entryX=0.5;entryY=1;entryDx=0;entryDy=0;" edge="1" parent="1" target="TFJXQhnBh7qjKHU6Yoi9-36">
          <mxGeometry width="50" height="50" relative="1" as="geometry">
            <mxPoint x="170" y="720" as="sourcePoint" />
            <mxPoint x="165" y="80" as="targetPoint" />
          </mxGeometry>
        </mxCell>
        <mxCell id="TFJXQhnBh7qjKHU6Yoi9-36" value="" style="rounded=0;whiteSpace=wrap;html=1;fillColor=#ffe6cc;strokeColor=#d79b00;" vertex="1" parent="1">
          <mxGeometry x="157" y="100" width="16" height="390" as="geometry" />
        </mxCell>
        <mxCell id="TFJXQhnBh7qjKHU6Yoi9-41" value="" style="endArrow=classic;html=1;rounded=0;entryX=-0.085;entryY=0.052;entryDx=0;entryDy=0;entryPerimeter=0;movable=0;resizable=0;rotatable=0;deletable=0;editable=0;locked=1;connectable=0;" edge="1" parent="1">
          <mxGeometry width="50" height="50" relative="1" as="geometry">
            <mxPoint x="32.5" y="121" as="sourcePoint" />
            <mxPoint x="156.5" y="121" as="targetPoint" />
          </mxGeometry>
        </mxCell>
        <mxCell id="TFJXQhnBh7qjKHU6Yoi9-43" value="&lt;font style=&quot;font-size: 12px;&quot;&gt;Search (TripName)&lt;/font&gt;" style="text;html=1;align=center;verticalAlign=middle;whiteSpace=wrap;rounded=0;" vertex="1" parent="1">
          <mxGeometry x="36" y="100" width="110" height="30" as="geometry" />
        </mxCell>
        <mxCell id="TFJXQhnBh7qjKHU6Yoi9-50" value="" style="endArrow=none;html=1;rounded=0;exitX=0.812;exitY=0.026;exitDx=0;exitDy=0;exitPerimeter=0;movable=0;resizable=0;rotatable=0;deletable=0;editable=0;locked=1;connectable=0;" edge="1" parent="1">
          <mxGeometry width="50" height="50" relative="1" as="geometry">
            <mxPoint x="172.99200000000002" y="105.13999999999999" as="sourcePoint" />
            <mxPoint x="198" y="105" as="targetPoint" />
          </mxGeometry>
        </mxCell>
        <mxCell id="TFJXQhnBh7qjKHU6Yoi9-51" value="" style="endArrow=none;html=1;rounded=0;movable=0;resizable=0;rotatable=0;deletable=0;editable=0;locked=1;connectable=0;" edge="1" parent="1">
          <mxGeometry width="50" height="50" relative="1" as="geometry">
            <mxPoint x="198" y="130" as="sourcePoint" />
            <mxPoint x="198" y="104.5" as="targetPoint" />
          </mxGeometry>
        </mxCell>
        <mxCell id="TFJXQhnBh7qjKHU6Yoi9-53" value="" style="endArrow=classic;html=1;rounded=0;movable=0;resizable=0;rotatable=0;deletable=0;editable=0;locked=1;connectable=0;" edge="1" parent="1">
          <mxGeometry width="50" height="50" relative="1" as="geometry">
            <mxPoint x="198.5" y="130" as="sourcePoint" />
            <mxPoint x="184.5" y="130" as="targetPoint" />
          </mxGeometry>
        </mxCell>
        <mxCell id="TFJXQhnBh7qjKHU6Yoi9-54" value="check&lt;div&gt;&lt;span style=&quot;background-color: initial;&quot;&gt;trip&lt;/span&gt;&lt;/div&gt;" style="text;html=1;align=center;verticalAlign=middle;whiteSpace=wrap;rounded=0;" vertex="1" parent="1">
          <mxGeometry x="195" y="95" width="40" height="27" as="geometry" />
        </mxCell>
        <mxCell id="TFJXQhnBh7qjKHU6Yoi9-57" value="" style="rounded=0;whiteSpace=wrap;html=1;fillColor=#d5e8d4;strokeColor=#82b366;" vertex="1" parent="1">
          <mxGeometry x="164" y="124" width="20" height="60" as="geometry" />
        </mxCell>
        <mxCell id="TFJXQhnBh7qjKHU6Yoi9-58" value="" style="endArrow=none;dashed=1;html=1;rounded=0;entryX=0.5;entryY=1;entryDx=0;entryDy=0;" edge="1" parent="1" target="TFJXQhnBh7qjKHU6Yoi9-47">
          <mxGeometry width="50" height="50" relative="1" as="geometry">
            <mxPoint x="565" y="724" as="sourcePoint" />
            <mxPoint x="564.5" y="80" as="targetPoint" />
          </mxGeometry>
        </mxCell>
        <mxCell id="TFJXQhnBh7qjKHU6Yoi9-47" value="" style="rounded=0;whiteSpace=wrap;html=1;fillColor=#d5e8d4;strokeColor=#82b366;" vertex="1" parent="1">
          <mxGeometry x="555" y="122" width="20" height="60" as="geometry" />
        </mxCell>
        <mxCell id="TFJXQhnBh7qjKHU6Yoi9-66" value="" style="endArrow=classic;html=1;rounded=0;movable=1;resizable=1;rotatable=1;deletable=1;editable=1;locked=0;connectable=1;" edge="1" parent="1">
          <mxGeometry width="50" height="50" relative="1" as="geometry">
            <mxPoint x="197" y="197" as="sourcePoint" />
            <mxPoint x="173" y="197" as="targetPoint" />
          </mxGeometry>
        </mxCell>
        <mxCell id="TFJXQhnBh7qjKHU6Yoi9-67" value="" style="endArrow=none;html=1;rounded=0;exitX=1.009;exitY=0.821;exitDx=0;exitDy=0;exitPerimeter=0;movable=0;resizable=0;rotatable=0;deletable=0;editable=0;locked=1;connectable=0;" edge="1" parent="1" source="TFJXQhnBh7qjKHU6Yoi9-57">
          <mxGeometry width="50" height="50" relative="1" as="geometry">
            <mxPoint x="240" y="270" as="sourcePoint" />
            <mxPoint x="197" y="173" as="targetPoint" />
          </mxGeometry>
        </mxCell>
        <mxCell id="TFJXQhnBh7qjKHU6Yoi9-68" value="" style="endArrow=none;html=1;rounded=0;movable=1;resizable=1;rotatable=1;deletable=1;editable=1;locked=0;connectable=1;" edge="1" parent="1">
          <mxGeometry width="50" height="50" relative="1" as="geometry">
            <mxPoint x="197" y="172.5" as="sourcePoint" />
            <mxPoint x="197" y="197.5" as="targetPoint" />
          </mxGeometry>
        </mxCell>
        <mxCell id="TFJXQhnBh7qjKHU6Yoi9-71" value="show confirmed results" style="text;html=1;align=center;verticalAlign=middle;whiteSpace=wrap;rounded=0;fontSize=10;fillColor=default;" vertex="1" parent="1">
          <mxGeometry x="157" y="178" width="108" height="10" as="geometry" />
        </mxCell>
        <mxCell id="TFJXQhnBh7qjKHU6Yoi9-73" value="" style="endArrow=classic;html=1;rounded=0;dashed=1;" edge="1" parent="1">
          <mxGeometry relative="1" as="geometry">
            <mxPoint x="157" y="198" as="sourcePoint" />
            <mxPoint x="32" y="198" as="targetPoint" />
          </mxGeometry>
        </mxCell>
        <mxCell id="TFJXQhnBh7qjKHU6Yoi9-74" value="results" style="edgeLabel;resizable=0;html=1;;align=center;verticalAlign=middle;" connectable="0" vertex="1" parent="TFJXQhnBh7qjKHU6Yoi9-73">
          <mxGeometry relative="1" as="geometry" />
        </mxCell>
        <mxCell id="TFJXQhnBh7qjKHU6Yoi9-76" value="" style="endArrow=classic;html=1;rounded=0;dashed=1;exitX=-0.103;exitY=0.635;exitDx=0;exitDy=0;exitPerimeter=0;" edge="1" parent="1" source="TFJXQhnBh7qjKHU6Yoi9-47">
          <mxGeometry relative="1" as="geometry">
            <mxPoint x="309" y="160" as="sourcePoint" />
            <mxPoint x="184" y="160" as="targetPoint" />
          </mxGeometry>
        </mxCell>
        <mxCell id="TFJXQhnBh7qjKHU6Yoi9-77" value="Results" style="edgeLabel;resizable=0;html=1;;align=center;verticalAlign=middle;" connectable="0" vertex="1" parent="TFJXQhnBh7qjKHU6Yoi9-76">
          <mxGeometry relative="1" as="geometry" />
        </mxCell>
        <mxCell id="TFJXQhnBh7qjKHU6Yoi9-78" value="" style="endArrow=classic;html=1;rounded=0;exitX=-0.103;exitY=0.635;exitDx=0;exitDy=0;exitPerimeter=0;" edge="1" parent="1">
          <mxGeometry relative="1" as="geometry">
            <mxPoint x="185" y="141" as="sourcePoint" />
            <mxPoint x="554" y="141" as="targetPoint" />
          </mxGeometry>
        </mxCell>
        <mxCell id="TFJXQhnBh7qjKHU6Yoi9-79" value="Gettrip(tripName)" style="edgeLabel;resizable=0;html=1;;align=center;verticalAlign=middle;" connectable="0" vertex="1" parent="TFJXQhnBh7qjKHU6Yoi9-78">
          <mxGeometry relative="1" as="geometry" />
        </mxCell>
      </root>
    </mxGraphModel>
  </diagram>
</mxfile>
